<svg xmlns="http://www.w3.org/2000/svg" width="1280" height="720" viewBox="0 0 1280 720" role="img" aria-labelledby="title desc">
  <title id="title">Temporal Agent Harness demo video thumbnail</title>
  <desc id="desc">A Temporal themed thumbnail for the Agent Harness demo recording.</desc>
  <defs>
    <linearGradient id="bg" x1="0" y1="0" x2="1" y2="1">
      <stop offset="0" stop-color="#07111f"/>
      <stop offset="0.45" stop-color="#101524"/>
      <stop offset="1" stop-color="#111827"/>
    </linearGradient>
    <linearGradient id="panel" x1="0" y1="0" x2="1" y2="1">
      <stop offset="0" stop-color="#172033"/>
      <stop offset="1" stop-color="#0c1322"/>
    </linearGradient>
    <linearGradient id="accent" x1="0" y1="0" x2="1" y2="1">
      <stop offset="0" stop-color="#22d3ee"/>
      <stop offset="0.5" stop-color="#4f46e5"/>
      <stop offset="1" stop-color="#10b981"/>
    </linearGradient>
    <linearGradient id="warm" x1="0" y1="0" x2="1" y2="0">
      <stop offset="0" stop-color="#f8fafc"/>
      <stop offset="1" stop-color="#bae6fd"/>
    </linearGradient>
    <filter id="shadow" x="-20%" y="-20%" width="140%" height="140%">
      <feDropShadow dx="0" dy="24" stdDeviation="30" flood-color="#000000" flood-opacity="0.45"/>
    </filter>
    <filter id="softGlow" x="-50%" y="-50%" width="200%" height="200%">
      <feGaussianBlur stdDeviation="12" result="blur"/>
      <feMerge>
        <feMergeNode in="blur"/>
        <feMergeNode in="SourceGraphic"/>
      </feMerge>
    </filter>
    <pattern id="grid" width="48" height="48" patternUnits="userSpaceOnUse">
      <path d="M48 0H0V48" fill="none" stroke="#27324a" stroke-width="1" opacity="0.32"/>
    </pattern>
  </defs>

  <rect width="1280" height="720" fill="url(#bg)"/>
  <rect width="1280" height="720" fill="url(#grid)" opacity="0.55"/>
  <path d="M0 590C160 540 270 620 430 574C620 520 750 420 920 458C1070 492 1140 612 1280 558V720H0Z" fill="#0f766e" opacity="0.13"/>
  <path d="M0 620C185 575 310 642 492 596C688 546 790 472 948 508C1094 542 1162 636 1280 604V720H0Z" fill="#2563eb" opacity="0.12"/>

  <g transform="translate(82 90)">
    <g filter="url(#softGlow)" opacity="0.95">
      <circle cx="78" cy="78" r="70" fill="#f8fafc" opacity="0.08"/>
      <path d="M100.905 53.074 C97.632 28.544 89.346 8.065 76.617 8.065 63.889 8.065 55.601 28.544 52.328 53.074 27.796 56.348 7.318 64.635 7.318 77.363 7.318 90.091 27.801 98.379 52.328 101.652 55.601 126.179 63.889 146.662 76.617 146.662 89.346 146.662 97.632 126.179 100.905 101.652 125.437 98.379 145.915 90.091 145.915 77.363 145.915 64.635 125.434 56.348 100.905 53.074 Z M51.528 94.506 C28.037 91.114 14.337 83.35 14.337 77.363 14.337 71.375 28.037 63.613 51.528 60.22 51.011 65.874 50.742 71.647 50.742 77.363 50.742 83.078 51.011 88.854 51.528 94.506 Z M76.617 15.08 C82.606 15.08 90.367 28.779 93.761 52.27 88.107 51.754 82.331 51.484 76.617 51.484 70.901 51.484 65.125 51.754 59.473 52.27 62.866 28.779 70.628 15.08 76.617 15.08 Z M101.706 94.506 C100.55 94.675 95.807 95.231 94.608 95.349 94.49 96.553 93.929 101.291 93.765 102.448 90.371 125.94 82.609 139.639 76.62 139.639 70.633 139.639 62.871 125.94 59.477 102.448 59.313 101.291 58.752 96.549 58.634 95.349 58.087 89.781 57.757 83.8 57.757 77.363 57.757 70.926 58.087 64.944 58.634 59.374 64.204 58.827 70.184 58.497 76.62 58.497 83.058 58.497 89.038 58.827 94.608 59.374 95.812 59.493 100.55 60.052 101.706 60.218 125.197 63.611 138.899 71.375 138.899 77.359 138.899 83.344 125.197 91.114 101.706 94.506 Z" fill="#f8fafc"/>
    </g>
    <text x="0" y="198" font-family="Inter, ui-sans-serif, system-ui, -apple-system, BlinkMacSystemFont, 'Segoe UI', sans-serif" font-size="28" font-weight="700" fill="#e2e8f0" letter-spacing="0.5">TEMPORAL</text>
  </g>

  <g transform="translate(305 90)">
    <text x="0" y="50" font-family="Inter, ui-sans-serif, system-ui, -apple-system, BlinkMacSystemFont, 'Segoe UI', sans-serif" font-size="58" font-weight="800" fill="#f8fafc">Temporal Agent Harness</text>
    <text x="0" y="98" font-family="Inter, ui-sans-serif, system-ui, -apple-system, BlinkMacSystemFont, 'Segoe UI', sans-serif" font-size="30" font-weight="600" fill="url(#warm)">Durable agents, tools, approvals, and streaming UI</text>
    <rect x="0" y="124" width="198" height="42" rx="21" fill="#0f172a" stroke="#334155"/>
    <circle cx="28" cy="145" r="7" fill="#22c55e"/>
    <text x="48" y="154" font-family="Inter, ui-sans-serif, system-ui, -apple-system, BlinkMacSystemFont, 'Segoe UI', sans-serif" font-size="18" font-weight="700" fill="#cbd5e1">Demo walkthrough</text>
  </g>

  <g transform="translate(135 300)" filter="url(#shadow)">
    <rect x="0" y="0" width="1010" height="322" rx="20" fill="url(#panel)" stroke="#334155" stroke-width="2"/>
    <rect x="0" y="0" width="1010" height="58" rx="20" fill="#111827"/>
    <path d="M0 38H1010V58H0Z" fill="#111827"/>
    <circle cx="34" cy="29" r="8" fill="#ef4444"/>
    <circle cx="60" cy="29" r="8" fill="#f59e0b"/>
    <circle cx="86" cy="29" r="8" fill="#22c55e"/>
    <rect x="132" y="17" width="510" height="24" rx="12" fill="#020617" stroke="#1e293b"/>
    <text x="154" y="35" font-family="SFMono-Regular, ui-monospace, Menlo, Consolas, monospace" font-size="13" fill="#94a3b8">agent-harness-demo.tmprl-demo.cloud</text>

    <g transform="translate(42 88)">
      <rect x="0" y="0" width="572" height="184" rx="12" fill="#0b1020" stroke="#293449"/>
      <text x="24" y="36" font-family="SFMono-Regular, ui-monospace, Menlo, Consolas, monospace" font-size="18" font-weight="700" fill="#8ea2c7">ASSISTANT</text>
      <text x="24" y="74" font-family="Inter, ui-sans-serif, system-ui, -apple-system, BlinkMacSystemFont, 'Segoe UI', sans-serif" font-size="22" font-weight="650" fill="#f8fafc">Build reliable agent workflows</text>
      <text x="24" y="112" font-family="Inter, ui-sans-serif, system-ui, -apple-system, BlinkMacSystemFont, 'Segoe UI', sans-serif" font-size="17" fill="#cbd5e1">See streaming turns, tool calls, approvals, interrupts,</text>
      <text x="24" y="142" font-family="Inter, ui-sans-serif, system-ui, -apple-system, BlinkMacSystemFont, 'Segoe UI', sans-serif" font-size="17" fill="#cbd5e1">attachments, and continue-as-new in Temporal history.</text>
    </g>

    <g transform="translate(662 88)">
      <rect x="0" y="0" width="306" height="184" rx="12" fill="#0b1020" stroke="#293449"/>
      <text x="22" y="36" font-family="SFMono-Regular, ui-monospace, Menlo, Consolas, monospace" font-size="16" font-weight="700" fill="#8ea2c7">WORKFLOW TIMELINE</text>
      <path d="M38 72H268" stroke="#334155" stroke-width="4" stroke-linecap="round"/>
      <circle cx="54" cy="72" r="11" fill="#22c55e"/>
      <circle cx="124" cy="72" r="11" fill="#22d3ee"/>
      <circle cx="194" cy="72" r="11" fill="#6366f1"/>
      <circle cx="264" cy="72" r="11" fill="#f59e0b"/>
      <rect x="38" y="110" width="230" height="16" rx="8" fill="#1f2937"/>
      <rect x="38" y="110" width="166" height="16" rx="8" fill="url(#accent)"/>
      <text x="38" y="154" font-family="SFMono-Regular, ui-monospace, Menlo, Consolas, monospace" font-size="14" fill="#cbd5e1">agent turn settled</text>
    </g>
  </g>

  <g transform="translate(574 376)" filter="url(#shadow)">
    <circle cx="66" cy="66" r="66" fill="#f8fafc" opacity="0.95"/>
    <circle cx="66" cy="66" r="56" fill="#111827"/>
    <path d="M53 36L99 66L53 96Z" fill="#f8fafc"/>
  </g>

  <g transform="translate(928 635)">
    <text x="0" y="0" font-family="SFMono-Regular, ui-monospace, Menlo, Consolas, monospace" font-size="16" font-weight="700" fill="#94a3b8">WATCH THE DEMO</text>
    <path d="M0 14H206" stroke="url(#accent)" stroke-width="4" stroke-linecap="round"/>
  </g>
</svg>
